<svg width="200" height="200" viewBox="0 0 200 200" fill="none" xmlns="http://www.w3.org/2000/svg">
<path d="M63.0824 149.672C74.2734 158.075 88.3634 162.743 103.428 161.955C137.541 160.169 163.746 131.066 161.959 96.9543C161.607 90.2813 160.211 83.9065 157.936 77.9845L168.784 71.8634C171.913 79.4384 173.827 87.6607 174.282 96.3127C176.427 137.232 144.993 172.135 104.073 174.278C85.1004 175.273 67.4214 169.047 53.6984 158.007L48.3934 162.715C47.0384 163.919 45.6684 163.333 45.4244 161.535C44.1974 152.467 43.1744 143.979 42.9654 139.644C42.9164 137.323 44.0004 136.591 45.5964 136.963L67.4674 142.016C69.2054 142.412 69.5864 143.906 68.2504 145.089L63.0824 149.672ZM26.1034 104.074C23.9604 63.1584 55.3904 28.2502 96.3104 26.1032C116.431 25.0502 135.103 32.1196 149.134 44.4396L154.734 39.4684C156.089 38.2694 157.459 38.8556 157.699 40.6496C158.929 49.7176 159.953 58.2046 160.162 62.5456C160.207 64.8616 159.127 65.5952 157.531 65.2262L135.664 60.1725C133.922 59.7735 133.541 58.2833 134.879 57.0963L139.824 52.7126C128.265 43.0586 113.178 37.5804 96.9534 38.4284C62.8404 40.2184 36.6394 69.3174 38.4284 103.429C38.7954 110.482 40.3324 117.194 42.8344 123.383C38.5144 123.99 34.3554 124.664 30.3934 125.397C27.9804 118.704 26.4944 111.543 26.1034 104.074Z" fill="url(#paint0_linear_2866_728)"/>
<path d="M51.3304 76.3154L51.4594 76.0971C52.0214 75.0631 53.2324 74.4504 54.1254 73.9834L97.1314 52.1221C98.1044 51.6111 99.0334 51.1801 100.193 51.2041C101.348 51.1801 102.362 51.6711 103.253 52.1221L146.218 73.9751C147.72 74.8151 148.476 75.1405 149.027 76.2915C149.433 77.0355 149.55 77.839 149.443 78.623L149.42 121.456C149.656 122.58 149.434 123.776 148.576 124.786C148.021 125.515 147.238 126.041 146.357 126.355L103.416 148.167C102.535 148.813 101.422 149.208 100.194 149.177V100.622L51.3304 76.3154Z" fill="#3848D3"/>
<path d="M51.3304 76.3154L100.192 100.622V149.177C98.9614 149.208 97.8514 148.813 96.9684 148.167L54.0274 126.355C53.1464 126.041 52.3594 125.514 51.8084 124.786C50.9514 123.776 50.7244 122.58 50.9664 121.456L50.9394 78.7153C50.8144 77.9103 50.9244 77.0784 51.3304 76.3154Z" fill="url(#paint1_linear_2866_728)"/>
<path d="M149.049 76.3154L100.193 100.622V149.177C101.421 149.208 102.534 148.813 103.415 148.167L146.356 126.355C147.237 126.041 148.024 125.514 148.575 124.786C149.432 123.776 149.655 122.58 149.419 121.456L149.442 78.7153C149.57 77.9103 149.461 77.0784 149.049 76.3154Z" fill="url(#paint2_linear_2866_728)"/>
<path d="M100.192 121.277V149.18C98.9614 149.207 97.8514 148.816 96.9684 148.17L54.0274 126.358C53.1464 126.041 52.3594 125.519 51.8084 124.786C51.5784 124.513 51.3924 124.232 51.2494 123.939C66.1484 122.227 82.7254 121.277 100.192 121.277Z" fill="url(#paint3_linear_2866_728)"/>
<path d="M100.192 121.277V149.18C101.42 149.207 102.533 148.816 103.414 148.17L146.355 126.358C147.236 126.041 148.023 125.519 148.574 124.786C148.804 124.513 148.99 124.232 149.131 123.939C134.236 122.227 117.66 121.277 100.192 121.277Z" fill="url(#paint4_linear_2866_728)"/>
<path d="M80.0944 126.806C80.7374 126.568 81.3034 126.45 80.9754 125.554C80.9324 125.432 80.9284 125.273 80.8854 125.155C80.7994 124.909 81.2294 124.482 81.3584 124.43C81.6674 124.319 82.3334 124.841 82.7394 124.695C83.1614 124.542 83.6864 122.941 83.6284 122.786C83.4764 122.371 82.6494 122.2 82.5404 121.899C82.1244 120.755 83.6554 121.111 83.8454 120.232L83.2414 118.577C82.4054 118.24 81.5874 119.282 81.1754 118.137C81.0604 117.829 81.5854 117.171 81.4314 116.76C81.2814 116.34 79.6914 115.81 79.5274 115.868C79.1174 116.018 78.9474 116.847 78.6444 116.958C78.1954 117.119 77.9254 116.882 77.8264 116.597C77.7834 116.475 77.5394 116.103 77.4944 115.984C77.3014 115.45 76.2714 115.905 76.1444 115.957C75.8204 116.075 74.9994 116.333 75.1994 116.875C75.2404 116.994 75.3124 117.485 75.3554 117.607C75.4474 117.861 75.0234 118.273 74.8554 118.336C74.5954 118.432 73.9064 117.912 73.5004 118.064C73.0864 118.218 72.5494 119.806 72.6114 119.972C72.7614 120.38 73.5864 120.554 73.6974 120.86C73.8614 121.307 73.6254 121.572 73.3654 121.668C72.3104 122.048 72.3634 122.452 72.6954 123.358C72.8144 123.68 73.0544 124.506 73.6134 124.3C74.0314 124.154 74.8224 123.944 75.0664 124.621C75.1794 124.923 74.6504 125.584 74.8044 126C74.9564 126.412 76.5544 126.945 76.7104 126.891C77.1284 126.737 77.3004 125.912 77.5974 125.801C78.0464 125.64 78.3064 125.868 78.4134 126.161C78.4564 126.28 78.7004 126.657 78.7454 126.775C78.9404 127.316 79.9674 126.849 80.0944 126.806ZM130.375 121.38C130.375 125.7 126.877 129.197 122.555 129.197H77.8264C73.5104 129.197 70.0104 125.7 70.0104 121.38C70.0104 117.064 73.5104 113.563 77.8264 113.563H122.555C126.877 113.563 130.375 117.064 130.375 121.38ZM75.6544 122.275C75.1564 120.918 75.8594 119.409 77.2184 118.913C78.5774 118.419 80.0874 119.124 80.5834 120.481C81.0774 121.843 80.3744 123.348 79.0154 123.844C77.6504 124.338 76.1484 123.638 75.6544 122.275Z" fill="#00E6E5"/>
<path d="M120.291 94.3145C119.645 94.5435 119.078 94.6621 119.406 95.5601C119.449 95.6831 119.455 95.8454 119.498 95.9644C119.586 96.2064 119.154 96.638 119.019 96.686C118.716 96.792 118.052 96.2743 117.644 96.4233C117.22 96.5743 116.697 98.1741 116.753 98.3281C116.907 98.7441 117.732 98.9142 117.841 99.2192C118.259 100.36 116.726 100.008 116.54 100.886L117.142 102.538C117.974 102.883 118.792 101.829 119.208 102.977C119.323 103.282 118.798 103.944 118.946 104.355C119.1 104.778 120.69 105.306 120.856 105.247C121.264 105.096 121.438 104.268 121.743 104.157C122.188 103.995 122.456 104.232 122.554 104.517C122.599 104.639 122.843 105.013 122.888 105.13C123.081 105.661 124.113 105.206 124.238 105.162C124.564 105.043 125.384 104.786 125.187 104.244C125.144 104.125 125.072 103.626 125.033 103.507C124.937 103.257 125.363 102.842 125.527 102.778C125.787 102.687 126.472 103.197 126.882 103.05C127.298 102.901 127.833 101.308 127.772 101.142C127.623 100.735 126.796 100.564 126.681 100.254C126.525 99.8084 126.759 99.5462 127.021 99.4502C128.076 99.0672 128.017 98.6662 127.687 97.7632C127.572 97.4392 127.328 96.6075 126.767 96.8135C126.356 96.9635 125.56 97.1691 125.314 96.4971C125.207 96.1951 125.728 95.5342 125.576 95.1152C125.428 94.6992 123.828 94.1682 123.672 94.2222C123.256 94.3732 123.084 95.2045 122.783 95.3125C122.338 95.4755 122.074 95.2411 121.969 94.9561C121.926 94.8331 121.682 94.4584 121.635 94.3394C121.44 93.7914 120.416 94.2635 120.287 94.3125H120.291V94.3145ZM70.0104 99.7354C70.0104 95.4194 73.5084 91.9185 77.8244 91.9185H122.554C126.876 91.9185 130.374 95.4194 130.374 99.7354C130.374 104.051 126.876 107.552 122.554 107.552H77.8244C73.5084 107.552 70.0044 104.051 70.0044 99.7354H70.0104ZM124.73 98.8394C125.224 100.201 124.525 101.706 123.164 102.201C121.801 102.7 120.295 101.995 119.801 100.633C119.305 99.2713 120.008 97.7665 121.367 97.2715C122.726 96.7765 124.234 97.4774 124.73 98.8394Z" fill="#00E6E5"/>
<path d="M80.0944 84.4253C80.7374 84.1873 81.3034 84.0723 80.9754 83.1733C80.9324 83.0543 80.9284 82.8924 80.8854 82.7734C80.7994 82.5324 81.2294 82.1042 81.3584 82.0532C81.6674 81.9372 82.3334 82.4683 82.7394 82.3193C83.1614 82.1603 83.6864 80.5682 83.6284 80.4092C83.4764 79.9942 82.6494 79.8194 82.5404 79.5234C82.1244 78.3774 83.6554 78.7345 83.8454 77.8555L83.2414 76.1992C82.4054 75.8592 81.5874 76.9012 81.1754 75.7612C81.0604 75.4522 81.5854 74.7904 81.4314 74.3784C81.2814 73.9594 79.6914 73.4332 79.5274 73.4922C79.1174 73.6412 78.9474 74.4651 78.6444 74.5811C78.1954 74.7431 77.9254 74.5052 77.8264 74.2202C77.7834 74.0982 77.5394 73.7261 77.4944 73.6021C77.3014 73.0761 76.2714 73.5282 76.1444 73.5752C75.8204 73.6942 74.9994 73.9551 75.1994 74.4941C75.2404 74.6171 75.3124 75.1081 75.3554 75.2271C75.4474 75.4851 75.0234 75.8965 74.8554 75.9595C74.5954 76.0545 73.9064 75.539 73.5004 75.686C73.0864 75.836 72.5494 77.4323 72.6114 77.5913C72.7614 78.0023 73.5864 78.1721 73.6974 78.4771C73.8614 78.9251 73.6254 79.1911 73.3654 79.2861C72.3104 79.6711 72.3634 80.0741 72.6954 80.9761C72.8144 81.3011 73.0544 82.1293 73.6134 81.9233C74.0314 81.7773 74.8224 81.5702 75.0664 82.2432C75.1794 82.5452 74.6504 83.2052 74.8044 83.6172C74.9564 84.0372 76.5544 84.5673 76.7104 84.5083C77.1284 84.3593 77.3004 83.5343 77.5974 83.4243C78.0464 83.2573 78.3064 83.4903 78.4134 83.7803C78.4564 83.9023 78.7004 84.2744 78.7454 84.3984C78.9404 84.9364 79.9674 84.4723 80.0944 84.4253ZM130.375 79.0044C130.375 83.3194 126.877 86.8242 122.555 86.8242H77.8264C73.5104 86.8242 70.0104 83.3194 70.0104 79.0044C70.0104 74.6834 73.5104 71.1821 77.8264 71.1821H122.555C126.877 71.1821 130.375 74.6834 130.375 79.0044ZM75.6544 79.9033C75.1564 78.5413 75.8594 77.0321 77.2184 76.5371C78.5774 76.0421 80.0874 76.7425 80.5834 78.1045C81.0774 79.4635 80.3744 80.9723 79.0154 81.4663C77.6504 81.9613 76.1484 81.2573 75.6544 79.9033Z" fill="#00E6E5"/>
<defs>
<linearGradient id="paint0_linear_2866_728" x1="43.4945" y1="178.941" x2="156.921" y2="21.4065" gradientUnits="userSpaceOnUse">
<stop stop-color="#FFC964"/>
<stop offset="0.7686" stop-color="#FF6B93"/>
<stop offset="1" stop-color="#FF6B93"/>
</linearGradient>
<linearGradient id="paint1_linear_2866_728" x1="50.1536" y1="104.162" x2="100.757" y2="121.456" gradientUnits="userSpaceOnUse">
<stop stop-color="#31439C"/>
<stop offset="1" stop-color="#80CFE3"/>
</linearGradient>
<linearGradient id="paint2_linear_2866_728" x1="99.9388" y1="112.213" x2="149.946" y2="113.298" gradientUnits="userSpaceOnUse">
<stop stop-color="#5250D1"/>
<stop offset="1" stop-color="#8C63CF"/>
</linearGradient>
<linearGradient id="paint3_linear_2866_728" x1="51.2718" y1="131.927" x2="100.118" y2="135.237" gradientUnits="userSpaceOnUse">
<stop stop-color="#1B2BBB"/>
<stop offset="0.9677" stop-color="#068FDE"/>
<stop offset="1" stop-color="#00ACDC"/>
</linearGradient>
<linearGradient id="paint4_linear_2866_728" x1="99.6261" y1="128.213" x2="148.907" y2="144.641" gradientUnits="userSpaceOnUse">
<stop stop-color="#2C3CC9"/>
<stop offset="1" stop-color="#805ECF"/>
</linearGradient>
</defs>
</svg>
